<svg xmlns="http://www.w3.org/2000/svg" viewBox="0 0 32 32" role="img" aria-label="AutoScoring">
  <rect width="32" height="32" rx="7" fill="#1f5c47"/>
  <!-- AS monogram, matching forest UI -->
  <path fill="#fafcf8" d="M7.2 23.2 11.9 8.8h2.4l4.7 14.4h-2.45l-1.05-3.35H10.7l-1.05 3.35H7.2zm4.55-5.25h3.7l-1.82-5.75h-.06l-1.82 5.75z"/>
  <path fill="#fafcf8" d="M18.6 23.2V8.8h5.35c1.55 0 2.7.35 3.45 1.05.75.7 1.12 1.65 1.12 2.85 0 .85-.2 1.55-.6 2.1-.4.55-.95.95-1.65 1.15v.06c.9.2 1.55.6 2 1.2.45.55.68 1.3.68 2.2 0 1.3-.42 2.3-1.25 3-.83.7-2.05 1.05-3.65 1.05H18.6zm2.3-8.05h2.85c.85 0 1.48-.18 1.9-.55.42-.37.63-.9.63-1.55 0-.7-.22-1.22-.65-1.55-.43-.35-1.08-.52-1.95-.52H20.9v4.17zm0 6.25h3.2c.95 0 1.65-.2 2.1-.58.45-.4.68-.95.68-1.68 0-.72-.23-1.28-.7-1.65-.46-.38-1.18-.57-2.15-.57H20.9v4.48z"/>
</svg>
